<svg width="40" height="40" viewBox="0 0 40 40" fill="none" xmlns="http://www.w3.org/2000/svg">
<path d="M20.0002 0C8.95578 0 0 9.18086 0 20.5064C0 29.5666 5.73063 37.2534 13.6773 39.9649C14.6769 40.1547 15.0439 39.52 15.0439 38.9783C15.0439 38.4894 15.0252 36.874 15.0167 35.1606C9.45266 36.4009 8.27859 32.7411 8.27859 32.7411C7.36875 30.3708 6.05781 29.7404 6.05781 29.7404C4.24328 28.4678 6.19469 28.494 6.19469 28.494C8.20297 28.6385 9.26047 30.6071 9.26047 30.6071C11.0444 33.742 13.9394 32.8357 15.0806 32.3117C15.2602 30.9865 15.7784 30.0817 16.3505 29.5697C11.9081 29.0512 7.23828 27.2928 7.23828 19.4354C7.23828 17.1965 8.01953 15.3672 9.29891 13.9311C9.09125 13.4146 8.40672 11.329 9.49266 8.50431C9.49266 8.50431 11.1722 7.95321 14.9942 10.6064C16.5895 10.152 18.3005 9.92421 20.0002 9.91636C21.6998 9.92421 23.4122 10.1519 25.0105 10.6064C28.8278 7.95337 30.505 8.50447 30.505 8.50447C31.5936 11.3289 30.9087 13.4148 30.7011 13.9311C31.9834 15.3672 32.7594 17.1965 32.7594 19.4354C32.7594 27.3116 28.0806 29.0458 23.627 29.5535C24.3444 30.1898 24.9836 31.4378 24.9836 33.351C24.9836 36.0946 24.9605 38.3029 24.9605 38.9783C24.9605 39.5241 25.3205 40.1635 26.3342 39.962C34.2766 37.2476 40 29.5637 40 20.5065C40 9.18086 31.0455 0 20.0002 0ZM7.49078 29.2118C7.44672 29.3136 7.29031 29.3442 7.14797 29.2742C7.00281 29.2074 6.92141 29.0685 6.96828 28.9663C7.01141 28.8614 7.16812 28.8321 7.31281 28.9024C7.45812 28.9694 7.54094 29.1095 7.49078 29.2118ZM8.47453 30.1118C8.37922 30.2025 8.19266 30.1603 8.06609 30.0171C7.93531 29.8742 7.91078 29.6829 8.0075 29.591C8.10594 29.5003 8.28672 29.5427 8.41781 29.6856C8.54875 29.8303 8.57406 30.0201 8.47453 30.1118ZM9.14953 31.2633C9.02687 31.3506 8.82656 31.2688 8.70266 31.0865C8.58016 30.9042 8.58016 30.6855 8.70531 30.5978C8.82953 30.5102 9.02688 30.589 9.15234 30.7701C9.27453 30.9554 9.27453 31.1741 9.14937 31.2635L9.14953 31.2633ZM10.2908 32.597C10.1813 32.721 9.94766 32.6877 9.77672 32.5185C9.60187 32.3532 9.55328 32.1187 9.66328 31.9947C9.77422 31.8704 10.0091 31.9053 10.1813 32.0732C10.3547 32.2382 10.4078 32.4745 10.2908 32.597ZM11.7661 33.0472C11.7177 33.2079 11.4927 33.281 11.2662 33.2127C11.04 33.1424 10.892 32.9543 10.9377 32.792C10.9847 32.6302 11.2106 32.5543 11.4388 32.6273C11.6647 32.6972 11.8131 32.884 11.7661 33.0474V33.0472ZM13.4448 33.2383C13.4505 33.4074 13.2584 33.5475 13.0206 33.5507C12.7816 33.5562 12.588 33.4194 12.5853 33.2528C12.5853 33.0821 12.7731 32.9432 13.0123 32.9391C13.2502 32.9343 13.4448 33.0701 13.4448 33.2383V33.2383ZM15.0941 33.1735C15.1225 33.3385 14.9573 33.508 14.7211 33.5531C14.4891 33.5966 14.2741 33.4947 14.2445 33.3311C14.2158 33.1619 14.3841 32.9924 14.6158 32.9487C14.8523 32.9066 15.0639 33.0057 15.0941 33.1735Z" fill="black"/>
</svg>
