<svg width="40" height="40" viewBox="0 0 40 40" fill="none" xmlns="http://www.w3.org/2000/svg">
<path d="M20 8C20.5304 8 21.0391 7.78929 21.4142 7.41421C21.7893 7.03914 22 6.53043 22 6V2C22 1.46957 21.7893 0.960859 21.4142 0.585786C21.0391 0.210714 20.5304 0 20 0C19.4696 0 18.9609 0.210714 18.5858 0.585786C18.2107 0.960859 18 1.46957 18 2V6C18 6.53043 18.2107 7.03914 18.5858 7.41421C18.9609 7.78929 19.4696 8 20 8ZM38 18H34C33.4696 18 32.9609 18.2107 32.5858 18.5858C32.2107 18.9609 32 19.4696 32 20C32 20.5304 32.2107 21.0391 32.5858 21.4142C32.9609 21.7893 33.4696 22 34 22H38C38.5304 22 39.0391 21.7893 39.4142 21.4142C39.7893 21.0391 40 20.5304 40 20C40 19.4696 39.7893 18.9609 39.4142 18.5858C39.0391 18.2107 38.5304 18 38 18ZM8 20C8 19.4696 7.78929 18.9609 7.41421 18.5858C7.03914 18.2107 6.53043 18 6 18H2C1.46957 18 0.960859 18.2107 0.585786 18.5858C0.210714 18.9609 0 19.4696 0 20C0 20.5304 0.210714 21.0391 0.585786 21.4142C0.960859 21.7893 1.46957 22 2 22H6C6.53043 22 7.03914 21.7893 7.41421 21.4142C7.78929 21.0391 8 20.5304 8 20ZM8.44 6C8.05013 5.63135 7.52978 5.43267 6.99343 5.44767C6.45708 5.46268 5.94865 5.69013 5.58 6.08C5.21135 6.46987 5.01267 6.99021 5.02767 7.52657C5.04268 8.06292 5.27013 8.57135 5.66 8.94L8.54 11.72C8.73327 11.9066 8.96216 12.0524 9.213 12.1486C9.46385 12.2448 9.7315 12.2895 10 12.28C10.2694 12.279 10.5358 12.2235 10.7833 12.117C11.0307 12.0104 11.2541 11.855 11.44 11.66C11.8125 11.2853 12.0216 10.7784 12.0216 10.25C12.0216 9.72163 11.8125 9.21473 11.44 8.84L8.44 6ZM30 12.28C30.5149 12.278 31.0092 12.0774 31.38 11.72L34.26 8.94C34.6113 8.5729 34.8098 8.08584 34.815 7.57774C34.8202 7.06963 34.6319 6.57859 34.2882 6.20434C33.9445 5.83009 33.4712 5.60069 32.9645 5.56274C32.4578 5.52478 31.9556 5.68112 31.56 6L28.68 8.84C28.3075 9.21473 28.0984 9.72163 28.0984 10.25C28.0984 10.7784 28.3075 11.2853 28.68 11.66C29.0263 12.0254 29.4976 12.2468 30 12.28ZM20 32C19.4696 32 18.9609 32.2107 18.5858 32.5858C18.2107 32.9609 18 33.4696 18 34V38C18 38.5304 18.2107 39.0391 18.5858 39.4142C18.9609 39.7893 19.4696 40 20 40C20.5304 40 21.0391 39.7893 21.4142 39.4142C21.7893 39.0391 22 38.5304 22 38V34C22 33.4696 21.7893 32.9609 21.4142 32.5858C21.0391 32.2107 20.5304 32 20 32ZM31.46 28.28C31.0781 27.9113 30.5654 27.7095 30.0346 27.7189C29.5039 27.7283 28.9987 27.9481 28.63 28.33C28.2613 28.7119 28.0595 29.2246 28.0689 29.7554C28.0783 30.2861 28.2981 30.7913 28.68 31.16L31.56 34C31.9308 34.3574 32.4251 34.558 32.94 34.56C33.208 34.5616 33.4735 34.5093 33.7209 34.4062C33.9683 34.3031 34.1924 34.1514 34.38 33.96C34.5675 33.7741 34.7162 33.5529 34.8178 33.3092C34.9193 33.0654 34.9716 32.804 34.9716 32.54C34.9716 32.276 34.9193 32.0146 34.8178 31.7708C34.7162 31.5271 34.5675 31.3059 34.38 31.12L31.46 28.28ZM8.54 28.28L5.66 31.06C5.47254 31.2459 5.32375 31.4671 5.22222 31.7108C5.12068 31.9546 5.0684 32.216 5.0684 32.48C5.0684 32.744 5.12068 33.0054 5.22222 33.2492C5.32375 33.4929 5.47254 33.7141 5.66 33.9C5.84758 34.0914 6.07172 34.2431 6.31909 34.3462C6.56646 34.4493 6.83202 34.5016 7.1 34.5C7.59303 34.5042 8.07023 34.3261 8.44 34L11.32 31.22C11.7019 30.8513 11.9217 30.3461 11.9311 29.8154C11.9405 29.2846 11.7387 28.7719 11.37 28.39C11.0013 28.0081 10.4961 27.7883 9.96535 27.7789C9.43463 27.7695 8.92191 27.9713 8.54 28.34V28.28ZM20 12C18.4177 12 16.871 12.4692 15.5554 13.3482C14.2398 14.2273 13.2145 15.4767 12.609 16.9385C12.0035 18.4003 11.845 20.0089 12.1537 21.5607C12.4624 23.1126 13.2243 24.538 14.3431 25.6569C15.462 26.7757 16.8874 27.5376 18.4393 27.8463C19.9911 28.155 21.5997 27.9965 23.0615 27.391C24.5233 26.7855 25.7727 25.7602 26.6518 24.4446C27.5308 23.129 28 21.5823 28 20C28 17.8783 27.1571 15.8434 25.6569 14.3431C24.1566 12.8429 22.1217 12 20 12Z" fill="black"/>
</svg>
